#N canvas 28 14 2502 942 12;
#X obj 154 196 comport;
#X msg 214 136 devices;
#X obj 153 345 pdchoco/slip_parse;
#X obj 237 1160 netsend -u -b;
#X msg 340 1058 disconnect;
#X msg 283 138 close;
#X text 226 995 ENVOYER LES DONNEES VERS LE LOGICIEL;
#X obj 204 438 oscparse;
#X obj 242 387 tgl 19 0 empty empty DEBOGAGE_OSC 22 11 0 12 #fcfcfc #000000 #000000 0 1;
#X obj 204 411 spigot;
#X obj 204 512 print OSC;
#X obj 232 252 tgl 19 0 empty empty DEBOGAGE_BRUT 22 11 0 12 #fcfcfc #000000 #000000 0 1;
#X obj 195 276 spigot;
#X obj 128 215 bng 19 250 50 0 empty empty empty 0 -10 0 12 #fcfcfc #000000 #000000;
#X text 149 14 RECEVOIR LES DONNEES DU LOGICIEL;
#X text 212 196 ENVOYER ET RECEVOIR LES DONNEES AU MICROCONTRÔLEUR;
#X obj 126 61 bng 19 250 50 0 empty empty empty 0 -10 0 12 #fcfcfc #000000 #000000;
#X obj 155 106 pdchoco/slip_pack;
#X text 120 41 UDP;
#X text 116 107 SLIP;
#X text 113 346 SLIP;
#X text 210 1160 UDP;
#X text 119 196 COM;
#X obj 407 232 tgl 19 0 empty empty DEBOGAGE_ASCII 22 11 0 12 #fcfcfc #000000 #000000 0 1;
#X obj 370 256 spigot;
#X obj 370 284 pdchoco/ascii_parse;
#X obj 370 313 print ASCII;
#X obj 195 308 print BRUT;
#X obj 204 468 list trim;
#X msg 333 1030 disconnect \, connect 127.0.0.1 7001;
#X obj 650 221 comport;
#X msg 710 161 devices;
#X obj 649 370 pdchoco/slip_parse;
#X obj 650 649 netsend -u -b;
#X msg 776 612 disconnect;
#X msg 779 163 close;
#X text 662 549 ENVOYER LES DONNEES VERS LE LOGICIEL;
#X obj 700 463 oscparse;
#X obj 738 412 tgl 19 0 empty empty DEBOGAGE_OSC 22 11 0 12 #fcfcfc #000000 #000000 0 1;
#X obj 700 436 spigot;
#X obj 700 524 print OSC;
#X obj 728 277 tgl 19 0 empty empty DEBOGAGE_BRUT 22 11 0 12 #fcfcfc #000000 #000000 0 1;
#X obj 691 301 spigot;
#X obj 624 240 bng 19 250 50 0 empty empty empty 0 -10 0 12 #fcfcfc #000000 #000000;
#X text 645 39 RECEVOIR LES DONNEES DU LOGICIEL;
#X text 708 221 ENVOYER ET RECEVOIR LES DONNEES AU MICROCONTRÔLEUR;
#X obj 622 86 bng 19 250 50 0 empty empty empty 0 -10 0 12 #fcfcfc #000000 #000000;
#X obj 651 131 pdchoco/slip_pack;
#X text 616 66 UDP;
#X text 612 132 SLIP;
#X text 609 371 SLIP;
#X text 615 221 COM;
#X obj 903 257 tgl 19 0 empty empty DEBOGAGE_ASCII 22 11 0 12 #fcfcfc #000000 #000000 0 1;
#X obj 866 281 spigot;
#X obj 866 338 print ASCII;
#X obj 691 333 print BRUT;
#X obj 700 493 list trim;
#X msg 769 584 disconnect \, connect 127.0.0.1 7001;
#X obj 866 309 pdchoco/ascii_parse 13;
#X msg 838 162 close \, baud 115200 \, open 6;
#X obj 1011 394 route tof_visuel;
#X obj 1010 420 clip 0 600;
#X obj 1010 444 / 600;
#X floatatom 1011 494 5 0 0 0 - - - 0;
#X obj 1008 467 expr 1- $f1;
#X obj 1067 665 netsend -u -b;
#X obj 1141 601 loadbang;
#X msg 1108 629 disconnect \, connect 127.0.0.1 7700;
#X obj 1042 571 oscformat tof_visuel;
#X obj 1014 520 change;
#X obj 154 42 netreceive -u -b 8100;
#X obj 674 818 nbx 5 17 -1e+37 1e+37 0 0 empty empty empty 0 -10 0 12 #fcfcfc #000000 #000000 0 256;
#X obj 669 932 oscformat -f i vkb_midi 0 cc 14;
#X obj 670 902 nbx 5 17 -1e+37 1e+37 0 0 empty empty empty 0 -10 0 12 #fcfcfc #000000 #000000 0 256;
#X text 722 859 regle de 3;
#X obj 672 848 * 100;
#X obj 672 876 / 320;
#X obj 650 67 netreceive -u -b 8000;
#X obj 1408 1187 netsend -u -b;
#X text 1382 1188 UDP;
#X text 968 834 mode flip flop;
#X obj 964 860 pdchoco/stream_flip_flop;
#X obj 965 914 tgl 19 0 empty empty empty 0 -10 0 12 #fcfcfc #000000 #000000 0 1;
#X obj 964 885 change;
#X text 1021 887 le change transforme le flux en evenement;
#X msg 1806 1117 connect 127.0.0.1 8001;
#X obj 1574 896 oscformat -f f play;
#X msg 1574 856 1;
#X msg 1735 854 1;
#X obj 1735 894 oscformat -f f stop;
#X msg 1805 1144 disconnect;
#X obj 1438 1096 oscformat -f f master volume;
#X obj 1438 1063 nbx 5 17 -1e+37 1e+37 0 0 empty empty empty 0 -10 0 12 #fcfcfc #000000 #000000 0 256;
#X obj 1473 906 vsl 19 162 0 1 0 0 empty empty empty 0 -9 0 12 #fcfcfc #000000 #000000 0 1;
#X obj 1574 777 select 0 1;
#X obj 1575 730 tgl 19 0 empty empty empty 0 -10 0 12 #fcfcfc #000000 #000000 0 1;
#X obj 1544 807 bng 19 250 50 0 empty empty empty 0 -10 0 12 #fcfcfc #000000 #000000;
#X obj 1613 820 bng 19 250 50 0 empty empty empty 0 -10 0 12 #fcfcfc #000000 #000000;
#X msg 1617 695 1;
#X msg 1554 692 0;
#X text 1654 776 ca c`est un if!!!!!!!!;
#X obj 1905 892 oscformat -f i vkb_midi 0 note 60;
#X msg 1972 819 0;
#X msg 1908 824 127;
#X msg 342 137 close \, baud 115200 \, open 4;
#X obj 558 776 route bouton_encod1_sons tof_sons angle_volume;
#X obj 394 62 loadbang;
#X obj 793 108 loadbang;
#X obj 362 956 loadbang;
#X obj 1802 1067 loadbang;
#X text 1410 837 regle de 3;
#X obj 1360 854 / 4095;
#X obj 1461 860 nbx 5 17 -1e+37 1e+37 0 0 empty empty empty 0 -10 0 12 #fcfcfc #000000 #000000 0 256;
#X obj 1197 980 pdchoco/stream_smooth 0.1 0.1;
#X connect 0 0 2 0;
#X connect 0 0 12 0;
#X connect 0 0 13 0;
#X connect 0 0 24 0;
#X connect 1 0 0 0;
#X connect 2 0 3 0;
#X connect 2 0 9 0;
#X connect 4 0 3 0;
#X connect 5 0 0 0;
#X connect 7 0 28 0;
#X connect 8 0 9 1;
#X connect 9 0 7 0;
#X connect 11 0 12 1;
#X connect 12 0 27 0;
#X connect 17 0 0 0;
#X connect 23 0 24 1;
#X connect 24 0 25 0;
#X connect 25 0 26 0;
#X connect 28 0 105 0;
#X connect 29 0 3 0;
#X connect 30 0 32 0;
#X connect 30 0 42 0;
#X connect 30 0 43 0;
#X connect 30 0 53 0;
#X connect 31 0 30 0;
#X connect 32 0 33 0;
#X connect 32 0 39 0;
#X connect 34 0 33 0;
#X connect 35 0 30 0;
#X connect 37 0 56 0;
#X connect 38 0 39 1;
#X connect 39 0 37 0;
#X connect 41 0 42 1;
#X connect 42 0 55 0;
#X connect 47 0 30 0;
#X connect 52 0 53 1;
#X connect 53 0 58 0;
#X connect 56 0 40 0;
#X connect 56 0 60 0;
#X connect 57 0 33 0;
#X connect 58 0 54 0;
#X connect 59 0 30 0;
#X connect 60 0 61 0;
#X connect 61 0 62 0;
#X connect 62 0 64 0;
#X connect 63 0 69 0;
#X connect 64 0 63 0;
#X connect 66 0 67 0;
#X connect 67 0 65 0;
#X connect 68 0 65 0;
#X connect 69 0 68 0;
#X connect 70 0 16 0;
#X connect 70 0 17 0;
#X connect 71 0 75 0;
#X connect 72 0 78 0;
#X connect 73 0 72 0;
#X connect 75 0 76 0;
#X connect 76 0 73 0;
#X connect 77 0 46 0;
#X connect 77 0 47 0;
#X connect 81 0 83 0;
#X connect 82 0 95 0;
#X connect 83 0 82 0;
#X connect 85 0 78 0;
#X connect 86 0 78 0;
#X connect 87 0 86 0;
#X connect 88 0 89 0;
#X connect 89 0 78 0;
#X connect 90 0 78 0;
#X connect 91 0 78 0;
#X connect 92 0 91 0;
#X connect 93 0 92 0;
#X connect 94 0 87 0;
#X connect 94 0 96 0;
#X connect 94 1 88 0;
#X connect 94 1 97 0;
#X connect 95 0 94 0;
#X connect 95 0 103 0;
#X connect 98 0 95 0;
#X connect 99 0 95 0;
#X connect 101 0 78 0;
#X connect 102 0 101 0;
#X connect 103 0 101 0;
#X connect 104 0 0 0;
#X connect 105 0 81 0;
#X connect 105 1 71 0;
#X connect 105 2 111 0;
#X connect 106 0 1 0;
#X connect 106 0 104 0;
#X connect 107 0 31 0;
#X connect 107 0 59 0;
#X connect 108 0 29 0;
#X connect 109 0 85 0;
#X connect 111 0 112 0;
#X connect 112 0 113 0;
#X connect 113 0 93 0;
