#N canvas 1046 38 1648 980 12;
#X obj 790 633 netsend -u -b;
#X msg 1028 546 connect 127.0.0.1 8001;
#X obj 791 325 oscformat -f f play;
#X msg 791 285 1;
#X msg 952 283 1;
#X obj 952 323 oscformat -f f stop;
#X msg 1027 573 disconnect;
#X obj 655 525 oscformat -f f master volume;
#X obj 655 492 nbx 5 17 -1e+37 1e+37 0 0 empty empty empty 0 -10 0 12 #fcfcfc #000000 #000000 0 256;
#X obj 660 320 vsl 19 162 0 1 0 0 empty empty empty 0 -9 0 12 #fcfcfc #000000 #000000 0 1;
#X obj 69 129 comport;
#X obj 74 167 pdchoco/slip_parse;
#X obj 73 210 oscparse;
#X obj 73 244 list trim;
#X msg 70 23 devices;
#X msg 154 55 baud 115200 \, open 4;
#X obj 74 357 tgl 19 0 empty empty empty 0 -10 0 12 #fcfcfc #000000 #000000 0 1;
#X obj 180 336 nbx 5 17 -1e+37 1e+37 0 0 empty empty empty 0 -10 0 12 #fcfcfc #000000 #000000 0 256;
#X obj 791 206 select 0 1;
#X obj 792 159 tgl 19 0 empty empty empty 0 -10 0 12 #fcfcfc #000000 #000000 0 1;
#X obj 761 236 bng 19 250 50 0 empty empty empty 0 -10 0 12 #fcfcfc #000000 #000000;
#X obj 830 249 bng 19 250 50 0 empty empty empty 0 -10 0 12 #fcfcfc #000000 #000000;
#X msg 834 124 1;
#X msg 771 121 0;
#X text 871 205 ca c`est un if!!!!!!!!;
#X obj 77 605 change;
#X text 126 606 le change transforme le flux en evenement;
#X text 86 584 mode direct;
#X text 241 474 mode flip flop;
#X obj 237 500 pdchoco/stream_flip_flop;
#X obj 238 554 tgl 19 0 empty empty empty 0 -10 0 12 #fcfcfc #000000 #000000 0 1;
#X obj 77 633 tgl 19 0 empty empty empty 0 -10 0 12 #fcfcfc #000000 #000000 0 1;
#X obj 237 525 change;
#X text 294 527 le change transforme le flux en evenement;
#X obj 184 389 nbx 5 17 -1e+37 1e+37 0 0 empty empty empty 0 -10 0 12 #fcfcfc #000000 #000000 0 256;
#X obj 187 419 pdchoco/stream_smooth 0.1 0.1;
#X text 400 423 lisser les valeurs;
#X obj 1122 321 oscformat -f i vkb_midi 0 note 60;
#X msg 1189 248 0;
#X obj 1104 471 oscformat -f i vkb_midi 0 cc 14;
#X obj 1104 438 nbx 5 17 -1e+37 1e+37 0 0 empty empty empty 0 -10 0 12 #fcfcfc #000000 #000000 0 256;
#X text 1156 395 regle de 3;
#N canvas 843 142 450 300 (subpatch) 0;
#X obj 103 18 inlet;
#X obj 115 253 outlet;
#X restore 410 182 pd;
#X obj 74 304 route bouton_encod1_sons tof_sons;
#X msg 1125 253 127;
#X obj 182 362 / 4095;
#X obj 1106 384 * 100;
#X obj 1106 412 / 320;
#X connect 1 0 0 0;
#X connect 2 0 0 0;
#X connect 3 0 2 0;
#X connect 4 0 5 0;
#X connect 5 0 0 0;
#X connect 6 0 0 0;
#X connect 7 0 0 0;
#X connect 8 0 7 0;
#X connect 9 0 8 0;
#X connect 10 0 11 0;
#X connect 11 0 12 0;
#X connect 12 0 13 0;
#X connect 13 0 43 0;
#X connect 14 0 10 0;
#X connect 15 0 10 0;
#X connect 16 0 25 0;
#X connect 16 0 29 0;
#X connect 17 0 45 0;
#X connect 17 0 46 0;
#X connect 18 0 3 0;
#X connect 18 0 20 0;
#X connect 18 1 4 0;
#X connect 18 1 21 0;
#X connect 19 0 18 0;
#X connect 19 0 44 0;
#X connect 22 0 19 0;
#X connect 23 0 19 0;
#X connect 25 0 31 0;
#X connect 29 0 32 0;
#X connect 30 0 19 0;
#X connect 32 0 30 0;
#X connect 34 0 35 0;
#X connect 37 0 0 0;
#X connect 38 0 37 0;
#X connect 39 0 0 0;
#X connect 40 0 39 0;
#X connect 43 0 16 0;
#X connect 43 1 17 0;
#X connect 44 0 37 0;
#X connect 45 0 34 0;
#X connect 46 0 47 0;
#X connect 47 0 40 0;
